<svg xmlns="http://www.w3.org/2000/svg" width="24" height="24" viewBox="0 0 24 24"><g transform="translate(0 -0.2)"><rect width="24" height="24" transform="translate(0 0.2)" fill="none"/><g transform="translate(4.997 3)"><path d="M12,3a6.716,6.716,0,0,0-1.4.14A6.991,6.991,0,0,0,7.34,15.22,1.945,1.945,0,0,1,8,16.69V19a2.006,2.006,0,0,0,2,2h.28a1.979,1.979,0,0,0,3.44,0H14a2.006,2.006,0,0,0,2-2V16.69a1.939,1.939,0,0,1,.64-1.46A6.992,6.992,0,0,0,12,3Zm2,14H10V16h4Zm-4,2V18h4v1Zm5.31-5.26c-.09.08-.16.18-.24.26H8.92a3.084,3.084,0,0,0-.24-.27A5,5,0,1,1,17,10,4.972,4.972,0,0,1,15.31,13.74Z" transform="translate(-4.997 -3)" fill="#0e9dee"/><g transform="translate(4.676 5.874)"><rect width="1" height="3" transform="translate(1.828 2.126)" fill="#0e9dee"/><rect width="1" height="3" transform="translate(0 0.707) rotate(-45)" fill="#0e9dee"/><rect width="1" height="3" transform="translate(2.536 2.839) rotate(-135)" fill="#0e9dee"/></g></g></g></svg>